# xmcd
#
# Track frame offsets: 
#        150
#        11079
#        20036
#        29479
#        40294
#        49854
#        60958
#        71303
#        82485
#        93066
#        102405
#        112193
#        125620
#        134834
#        145299
#        159369
#        170133
#        182447
#        193949
#        202928
#        212270
#        223816
#
# Disc length: 3121 seconds
#
# Revision: 0
# Processed by: cddbd v1.5.2PL0 Copyright (c) Steve Scherf et al.
# Submitted via: ExactAudioCopy v0.95b3
#
DISCID=4b0c2f16
DTITLE=The Beatles  - Past Masters 1 (Optimal Source Series)
DYEAR=1900
DGENRE=
TTITLE0=Love Me Do (Ringo)
TTITLE1=From Me To You (Mono)
TTITLE2=Thank You Girl (Mono)
TTITLE3=She Loves You
TTITLE4=I'll Get You
TTITLE5=I Want To Hold Your Hand
TTITLE6=This Boy
TTITLE7=Komm, Gib Mir Deine Hand (Mono)
TTITLE8=Sie Liebt Dich (Mono)
TTITLE9=Long Tall Sally
TTITLE10=I Call Your Name
TTITLE11=Slow Down
TTITLE12=Matchbox
TTITLE13=I Feel Fine
TTITLE14=She's A Woman
TTITLE15=Bad Boy
TTITLE16=Yes It Is
TTITLE17=I'm Down
TTITLE18=From Me To You (Stereo)
TTITLE19=Thank You Girl (Stereo)
TTITLE20=Komm, Gib Mir Deine Hand (Stereo)
TTITLE21=Sie Liebt Dich (Stereo)
EXTD=
EXTT0=
EXTT1=
EXTT2=
EXTT3=
EXTT4=
EXTT5=
EXTT6=
EXTT7=
EXTT8=
EXTT9=
EXTT10=
EXTT11=
EXTT12=
EXTT13=
EXTT14=
EXTT15=
EXTT16=
EXTT17=
EXTT18=
EXTT19=
EXTT20=
EXTT21=
PLAYORDER=
